Coordinates
version=1
nRows=21
nColumns=22
inDegrees=yes

Units are S.I. units (second, meters, Newtons, ...)
If the header above contains a line with 'inDegrees', this indicates whether rotational values are in degrees (yes) or radians (no).

endheader
time	pelvis_tilt	pelvis_list	pelvis_rotation	pelvis_tx	pelvis_ty	pelvis_tz	hip_flexion_r	hip_adduction_r	hip_rotation_r	knee_angle_r	ankle_angle_r	subtalar_angle_r	hip_flexion_l	hip_adduction_l	hip_rotation_l	knee_angle_l	ankle_angle_l	subtalar_angle_l	lumbar_extension	lumbar_bending	lumbar_rotation
      2.50000000	     -6.25828225	     -5.02262855	     -6.48193223	      0.43229744	      0.92326899	     -0.21161311	      5.77087492	      7.53982061	      6.46847484	    -26.98039187	     18.96401272	     -2.53523896	     35.19615318	     -9.95478702	     -1.85312671	    -25.88240318	      5.77066653	     -0.46651347	     -9.05762313	      0.66663546	      8.28937210
      2.51000000	     -6.21646434	     -4.91246652	     -6.15811087	      0.42377434	      0.92330413	     -0.21029747	      6.19357009	      7.60653335	      6.10419804	    -26.82440155	     19.17632524	     -3.12704342	     35.30215989	     -9.85123377	     -1.79214017	    -25.85682010	      6.14107484	      0.29159302	     -9.15711916	      0.55126545	      8.03296012
      2.52000000	     -6.14308727	     -4.81835551	     -5.81154604	      0.41552129	      0.92347114	     -0.20907863	      6.54900325	      7.67061093	      5.78301996	    -26.63342983	     19.33195646	     -3.65651668	     35.37507827	     -9.74319224	     -1.66900726	    -26.09058852	      6.42571984	      0.95141633	     -9.25557052	      0.44713146	      7.77791043
      2.53000000	     -6.03191533	     -4.75079584	     -5.46704247	      0.40752907	      0.92377361	     -0.20789877	      6.82418458	      7.75291899	      5.53123895	    -26.40139333	     19.45029691	     -4.18499532	     35.42503853	     -9.66683816	     -1.53973647	    -26.64585871	      6.68923738	      1.49522587	     -9.36481364	      0.36031891	      7.54550746
      2.54000000	     -5.88542711	     -4.70387674	     -5.10068657	      0.39978349	      0.92422371	     -0.20681124	      7.02826117	      7.84008726	      5.29866315	    -26.13481649	     19.50612562	     -4.64102242	     35.45139440	     -9.59555456	     -1.35931207	    -27.51833372	      6.90082873	      1.86735368	     -9.48645902	      0.29190487	      7.27772008
      2.55000000	     -5.70896798	     -4.68489987	     -4.73476004	      0.39226635	      0.92482320	     -0.20577330	      7.17032192	      7.94656444	      5.09707458	    -25.83985816	     19.50514192	     -5.07756056	     35.44971493	     -9.55354201	     -1.15512435	    -28.70422978	      7.10603055	      2.09176656	     -9.61560540	      0.24713578	      7.02174518
      2.56000000	     -5.50169462	     -4.69851289	     -4.37723177	      0.38493950	      0.92558135	     -0.20477189	      7.25604022	      8.07922871	      4.92689784	    -25.52449823	     19.46525886	     -5.34624820	     35.40175479	     -9.54491773	     -0.91598677	    -30.16838703	      7.33657460	      2.10828287	     -9.76354340	      0.22858135	      6.77746369
      2.57000000	     -5.31157662	     -4.73686458	     -4.02313273	      0.37782932	      0.92644888	     -0.20383457	      7.32497242	      8.22007504	      4.71782202	    -25.15827501	     19.30035197	     -5.80449519	     35.35447759	     -9.57055056	     -0.68327465	    -31.88509712	      7.52211545	      2.09332045	     -9.86042166	      0.23988258	      6.55617380
      2.58000000	     -5.10720985	     -4.80654369	     -3.69767819	      0.37084585	      0.92745777	     -0.20291697	      7.37604919	      8.38640647	      4.54163733	    -24.80030752	     19.09066123	     -6.08474761	     35.24337100	     -9.63769942	     -0.43077054	    -33.78882108	      7.74973771	      1.92488942	     -9.96400270	      0.28028192	      6.35978504
      2.59000000	     -4.92797111	     -4.89402284	     -3.39452103	      0.36396130	      0.92855122	     -0.20202245	      7.45808093	      8.56007404	      4.34609554	    -24.45114438	     18.80436416	     -6.36597750	     35.09978425	     -9.73171107	     -0.17042550	    -35.82572799	      7.96283118	      1.68090265	    -10.02758644	      0.33572270	      6.18797586
      2.60000000	     -4.76071578	     -4.99909545	     -3.13105589	      0.35715693	      0.92975313	     -0.20113999	      7.55458247	      8.74403634	      4.18424554	    -24.10871854	     18.44719409	     -6.46563324	     34.88546857	     -9.85712912	      0.08529041	    -37.93540078	      8.21855882	      1.43552997	    -10.07187351	      0.40722595	      6.04248141
      2.61000000	     -4.65921056	     -5.10247377	     -2.88455691	      0.35038000	      0.93095409	     -0.20032881	      7.74286177	      8.90747196	      3.95548598	    -23.79202008	     18.02470888	     -6.62960728	     34.66204826	     -9.97268815	      0.35503332	    -40.07552896	      8.39725708	      1.13711186	    -10.03607484	      0.48063117	      5.91400571
      2.62000000	     -4.57058521	     -5.20028269	     -2.68676129	      0.34362700	      0.93223772	     -0.19953022	      7.95398932	      9.06157860	      3.78603021	    -23.49152188	     17.54321089	     -6.65411614	     34.34152072	    -10.09220808	      0.59861976	    -42.18544212	      8.62632044	      0.91444681	     -9.98789994	      0.54517553	      5.81060794
      2.63000000	     -4.53077074	     -5.28010360	     -2.51648781	      0.33685902	      0.93350515	     -0.19880895	      8.24694398	      9.18333613	      3.59392257	    -23.23359901	     17.02350822	     -6.65744009	     33.97433291	    -10.18496784	      0.82847426	    -44.24312144	      8.82750627	      0.72293292	     -9.88972369	      0.59506180	      5.71504577
      2.64000000	     -4.55081654	     -5.33008391	     -2.37152480	      0.33005315	      0.93470241	     -0.19816033	      8.63753259	      9.26610365	      3.38894892	    -23.02735992	     16.50459629	     -6.66878554	     33.57275223	    -10.23272831	      1.04161587	    -46.22004712	      8.99008260	      0.58149931	     -9.73199467	      0.61654679	      5.62166927
      2.65000000	     -4.57689765	     -5.35216133	     -2.25223580	      0.32324059	      0.93590411	     -0.19759214	      9.04312276	      9.31763091	      3.23903591	    -22.83630155	     15.96002925	     -6.64632646	     33.06465274	    -10.23814430	      1.22220579	    -48.07986640	      9.16853452	      0.51695550	     -9.57771528	      0.61217795	      5.52193367
      2.66000000	     -4.63449441	     -5.34045622	     -2.14708006	      0.31639864	      0.93701750	     -0.19712929	      9.50957482	      9.32785234	      3.09199182	    -22.69031380	     15.43262381	     -6.63469528	     32.49179916	    -10.18755798	      1.37651398	    -49.81609930	      9.32618178	      0.52961821	     -9.39901121	      0.57909415	      5.41100013
      2.67000000	     -4.71141854	     -5.30056237	     -2.04875674	      0.30953855	      0.93802947	     -0.19677068	     10.01771503	      9.30536884	      2.95829215	    -22.58144296	     14.92896352	     -6.64759185	     31.84433848	    -10.08427853	      1.50908268	    -51.41536599	      9.47015660	      0.63330809	     -9.21029320	      0.52272385	      5.28279633
      2.68000000	     -4.77265145	     -5.21212848	     -1.97597008	      0.30270761	      0.93899135	     -0.19650534	     10.51902084	      9.22844455	      2.86543017	    -22.49887771	     14.44401734	     -6.64805327	     31.06303099	     -9.92445110	      1.56737205	    -52.83990731	      9.58322416	      0.71787425	     -9.04620665	      0.41770435	      5.17196274
      2.69000000	     -4.87414417	     -5.15822762	     -1.84016952	      0.29582544	      0.93971400	     -0.19642026	     11.08535509	      9.17922102	      2.73265713	    -22.45120193	     14.02798945	     -6.75853960	     30.29020283	     -9.73529936	      1.72164592	    -54.15565685	      9.70179223	      1.10206989	     -8.85230321	      0.37457085	      4.95201111
      2.70000000	     -4.94687761	     -5.06920819	     -1.72908998	      0.28899683	      0.94037065	     -0.19639587	     11.62589668	      9.09194454	      2.64605326	    -22.42604565	     13.62767180	     -6.86975207	     29.37434868	     -9.51167267	      1.80483203	    -55.27572318	      9.78198865	      1.46867968	     -8.69438063	      0.29278031	      4.75630326
